<svg id="Capa_1" data-name="Capa 1" xmlns="http://www.w3.org/2000/svg" viewBox="0 0 250 150"><defs><style>.cls-1{fill:#fff;}</style></defs><title>logo2Mesa de trabajo 1</title><path d="M160.46,86.43c-1.92,0-3.83,0-5.75,0-.48,0-.88,0-.81-.66.4-4.33-2.55-6.33-6.23-7.4a16.78,16.78,0,0,0-11.61.83A6,6,0,0,0,132.14,85a1.73,1.73,0,0,0,1.14,1.68,20.84,20.84,0,0,0,6,1.34c5.15.73,10.38.77,15.48,2,4.74,1.14,8.76,3.28,11.49,7.49,3.35,5.17,3.56,10.63,1.26,16.17-2.55,6.1-7.58,9.4-13.65,11.4a32.33,32.33,0,0,1-12.91,1.42c-5.79-.48-11.21-2.14-15.75-5.94a17.11,17.11,0,0,1-6.48-13.72c0-2,0-2,2-2,3.32,0,6.63,0,10,0,.72,0,1,.08,1,.92a5.68,5.68,0,0,0,3.78,5.66,18.87,18.87,0,0,0,8.85,1.78c3.31-.21,6.64-.68,9.44-2.76a5.19,5.19,0,0,0,2-5.66c-.09-.45-.4-.59-.71-.76a18.44,18.44,0,0,0-7.27-1.89c-4.05-.46-8.12-.73-12.14-1.31s-7.72-1.61-11-4.12A14.19,14.19,0,0,1,119,85.63a17.92,17.92,0,0,1,4.07-12.56,21,21,0,0,1,9.18-6.25,28.63,28.63,0,0,1,11.64-1.94c6.35.29,12.28,2,17.14,6.26,4.36,3.88,6.15,8.92,6,14.71,0,.64-.39.58-.8.58h-5.75Z"/><path d="M55.14,86.43H49.39c-.41,0-.85.07-.78-.58.44-4.46-2.76-6.46-6.18-7.46a16.68,16.68,0,0,0-11.81.87,6,6,0,0,0-3.82,5.87A1.8,1.8,0,0,0,28,86.74,22.36,22.36,0,0,0,34,88c5.11.73,10.31.73,15.36,2a19.55,19.55,0,0,1,9.13,4.56c6.28,6,6.39,15.24,2.33,21.61-3.16,5-7.89,7.66-13.36,9.17a32.58,32.58,0,0,1-22.2-1.45c-6.13-2.67-10.27-7.14-11.68-13.85a24.5,24.5,0,0,1-.26-4.61c0-.5.19-.61.65-.61H25.71c.29,0,.61-.07.59.41-.21,4.21,2.48,6,6,7a18.85,18.85,0,0,0,6.69,1c3.06-.25,6.12-.7,8.81-2.36A5.32,5.32,0,0,0,50.42,105a1.28,1.28,0,0,0-.78-1,19.26,19.26,0,0,0-7.28-1.87c-4-.46-8.11-.73-12.14-1.3A22.81,22.81,0,0,1,19.71,97a13.75,13.75,0,0,1-5.81-9.58,17.73,17.73,0,0,1,5.73-16.3A24.38,24.38,0,0,1,31.5,65.5,30,30,0,0,1,48,66.66C54.43,69,59.21,73.05,61.08,80a24.12,24.12,0,0,1,.62,5.68c0,.65-.2.82-.81.81C59,86.41,57.06,86.43,55.14,86.43Z"/><path d="M170.9,94.9c0-9.5,0-19,0-28.52,0-.91.2-1.15,1.13-1.13,3.57.06,7.15,0,10.72,0,.94,0,1.23.17,1.22,1.18,0,8.33,0,16.65,0,25,0,1.32,0,1.29,1.31,1,4.83-1.17,9.54-2.79,14.42-3.81a47.15,47.15,0,0,1,7.46-1.21c.76,0,.64-.53.64-1,0-6.64,0-13.27,0-19.9,0-.92.14-1.24,1.17-1.22,3.68.08,7.37.05,11.05,0,.77,0,1,.19,1,1q0,28.68,0,57.37c0,.81-.17,1-1,1-3.68-.05-7.37-.06-11,0-1,0-1.12-.3-1.12-1.17,0-7.34,0-14.67,0-22,0-.88-.14-1.07-1.11-.92-6.31.94-12.3,3.17-18.49,4.59-1.07.25-2.15.43-3.23.63-.69.14-1.06.38-1,1.26.06,5.49,0,11,0,16.47,0,.94-.27,1.15-1.17,1.14-3.65-.05-7.29-.05-10.94,0-.79,0-1-.22-1-1C170.91,114.06,170.9,104.48,170.9,94.9Z"/><path d="M78.59,84.81c.09,4.67-.19,10.38.13,16.08a13.88,13.88,0,0,0,3.16,8.74,11.86,11.86,0,0,0,10.19,3.92,11.7,11.7,0,0,0,8.06-3.76,13.2,13.2,0,0,0,3.18-7.9c.42-4.15.15-8.32.17-12.47,0-7.63,0-15.26,0-22.89,0-.85.2-1.1,1.08-1.09,3.72.06,7.45,0,11.17,0,.76,0,1,.18,1,1,0,11.27.26,22.56-.09,33.82-.38,12.25-7.51,22.43-19.75,25.63-7.64,2-14.69.2-20.92-4.58-7.09-5.44-10.22-12.91-10.33-21.64-.14-11,0-22-.06-33.06,0-.9.19-1.17,1.13-1.15,3.65.06,7.3,0,10.95,0,.76,0,1,.17,1,1C78.57,72.19,78.59,78,78.59,84.81Z"/><path d="M15,41.19c-.25-10.36,8.67-19.35,19.33-19.28a19.38,19.38,0,1,1-.22,38.76C23.78,60.62,14.69,52,15,41.19ZM45.92,49.4a3.54,3.54,0,0,0-5.42-2.8,1.25,1.25,0,0,1-1.63,0,3.17,3.17,0,0,0-3.73,0,1.3,1.3,0,0,1-1.67,0,2.91,2.91,0,0,0-3.14-.27,2.48,2.48,0,0,1-2.76,0,3.51,3.51,0,0,0-4.9,2.82c-.05.56-.05,1.16.69,1.3s1-.22,1.16-.87c0-.14.11-.27.14-.41A1.5,1.5,0,0,1,26.38,48a1.53,1.53,0,0,1,1.54,1.31c.13.59.22,1.2,1,1.19s.91-.65,1-1.21A1.56,1.56,0,0,1,31.85,48c1,0,1.33.8,1.52,1.61.12.53.34.89.93.89s.91-.41,1-1A1.57,1.57,0,0,1,37,47.94c1.11,0,1.58.62,1.75,1.59.1.58.36,1,1,.93s.81-.4.88-.93a1.62,1.62,0,0,1,1.77-1.59c1.11,0,1.5.7,1.71,1.65.12.53.42,1,1.08.85S45.91,49.83,45.92,49.4Zm-20.5-7.18c0,.53.07,1,.73,1.12s.91-.37,1-.91c.19-1,.65-1.66,1.7-1.74s1.48.67,1.78,1.49c.2.52.26,1.15,1,1.15s.78-.63.95-1.16a1.77,1.77,0,0,1,1.81-1.47,1.7,1.7,0,0,1,1.67,1.6c.09.51.26,1.05.93,1.05s.88-.55,1-1A1.67,1.67,0,0,1,39.7,40.7a1.83,1.83,0,0,1,1.77,1.68c.13.62.38,1.11,1.07.92a1.09,1.09,0,0,0,.72-1.42c-.54-2.4-3.15-4-5.49-2.45a1.17,1.17,0,0,1-1.56,0,3.08,3.08,0,0,0-3.61-.12,1.55,1.55,0,0,1-1.94,0A3.47,3.47,0,0,0,25.42,42.22ZM32,31.89c-2.31,0-3.68,1.16-4,3-.09.61,0,1.13.71,1.29s.93-.23,1.13-.78c.14-.37.11-.8.42-1.12A1.77,1.77,0,0,1,32,33.68a1.74,1.74,0,0,1,1.41,1.62c.11.6.35,1,1,1s.85-.49.93-1a1.82,1.82,0,0,1,.41-1,1.68,1.68,0,0,1,1.7-.55,1.73,1.73,0,0,1,1.31,1.47c.12.7.4,1.26,1.21,1.06s.72-.95.62-1.55a3.22,3.22,0,0,0-3.34-2.75C35.32,32.12,33.47,33,32,31.89Z"/><path d="M141.09,41c0,6.89,0,13.51,0,20.14,0,.94-.16,1.26-1.18,1.22-2.39-.08-4.79-.07-7.19,0-.9,0-1.17-.21-1.16-1.14,0-9.1,0-18.2,0-27.31,0-4.2,0-8.4,0-12.6,0-.84.21-1,1-1,2.58.06,5.16,0,7.74,0,.45,0,.79,0,.74.61-.49,5.46,2.32,9.32,6.28,12.51,3.57,2.88,7.26,5.6,10.9,8.39a1.19,1.19,0,0,0,.3.14c.27-.3.12-.65.12-1,0-6.56,0-13.12,0-19.68,0-.83.2-1.06,1-1,2.47.06,4.94.05,7.41,0,.74,0,1,.14,1,.94q0,20.13,0,40.24c0,.65-.12.9-.84.89-2.58,0-5.16,0-7.74,0-.48,0-.89,0-.83-.67.43-4.87-2.06-8.31-5.51-11.3C149.39,47.09,145.08,44.46,141.09,41Z"/><path d="M171.36,41.28c0-6.7,0-13.41,0-20.11,0-.83.19-1.13,1-1,3.33.48,6.69.1,10,.23,7.65.29,13.25,3.86,16.88,10.59a21.7,21.7,0,0,1,2.6,12.19c-.72,9.46-6.63,17.19-16.42,18.82a61.85,61.85,0,0,1-8.92.36c-1.36,0-2.73,0-4.09,0-.85.05-1.11-.18-1.1-1.08C171.38,54.62,171.36,48,171.36,41.28Zm9.38,0c0,3.35,0,6.7,0,10.05,0,.34-.27.9.43.91,3.27,0,6.31-.6,8.59-3.18a11.09,11.09,0,0,0,2.63-8.87c-.61-6.27-4.54-9.9-10.72-9.86-.79,0-1,.25-1,1C180.77,34.67,180.75,38,180.74,41.3Z"/><path d="M112.8,36a28.58,28.58,0,0,1,7.2-2.16,36,36,0,0,1,5.48-.33c.51,0,.61.24.61.68,0,2.91,0,5.82,0,8.73,0,.64-.29.71-.81.7-1.07,0-2.14,0-3.2.07-3.24.16-6,1.86-8.9,3-.45.17-.39.46-.39.78,0,1.29,0,2.58,0,3.86,0,.83.19,1,1,1,4.75,0,9.51,0,14.26,0,.92,0,1.28.13,1.25,1.17-.1,2.69-.05,5.38,0,8.07,0,.67-.17.88-.87.88q-12.09,0-24.2,0c-.75,0-.92-.23-.92-.94q0-20.11,0-40.23c0-.77.27-.9,1-.9q11.73,0,23.44,0c.72,0,.83.23.82.87,0,2.77,0,5.53,0,8.29,0,.72-.19.92-.91.91-4.39,0-8.77,0-13.16,0-1.65,0-1.65,0-1.65,1.71Z"/><path d="M231.19,62.38c-1.4,0-2.8,0-4.2,0a.88.88,0,0,1-1-.73c-.76-2.28-1.6-4.54-2.34-6.83a.83.83,0,0,0-1-.69,32.74,32.74,0,0,1-9.72-.77c-1-.22-1.4.13-1.69,1-.77,2.43-1.63,4.84-2.42,7.27a.88.88,0,0,1-1,.73q-4.2,0-8.4,0c-.65,0-.91,0-.63-.83,3.8-10.94,7.54-21.89,11.3-32.84.88-2.55,1.79-5.09,2.63-7.66a.9.9,0,0,1,1-.75c2.5,0,5,0,7.51,0a.81.81,0,0,1,.93.67q5.94,17.49,11.92,35c.65,1.9,1.29,3.8,2,5.69.22.59.13.77-.52.76C234.07,62.35,232.63,62.38,231.19,62.38ZM219.94,44c-.83-2.43-1.64-4.83-2.53-7.45-.81,2.3-1.51,4.32-2.22,6.34-.14.4-.29.79.39.83A25.78,25.78,0,0,0,219.94,44Z"/><path d="M224,94.9c0-9.51,0-19,0-28.53,0-.93.24-1.14,1.15-1.12,3.64.06,7.29,0,10.94,0,.72,0,.93.18.93.91q0,28.75,0,57.49c0,.8-.25,1-1,1-3.69,0-7.37,0-11.06,0-.79,0-.95-.22-.95-1C224,114.06,224,104.48,224,94.9Z"/><path d="M65.9,46.36c0-4.93,0-9.87,0-14.8,0-.92-.13-1.26-1.17-1.23-3,.08-6,0-9,0-.73,0-1-.1-1-.93.06-2.76.05-5.52,0-8.28,0-.67.15-.86.84-.86q15,0,30,0c.78,0,.89.28.88.95,0,2.69,0,5.38,0,8.07,0,.8-.16,1.07-1,1.06-3-.06-6,0-9.06-.05-.93,0-1.16.24-1.15,1.16,0,9.91,0,19.82,0,29.72,0,.9-.2,1.2-1.14,1.17-2.43-.07-4.87-.06-7.3,0-.78,0-1-.21-1-1C65.91,56.38,65.9,51.37,65.9,46.36Z"/><path d="M99.74,41.4c0,6.63,0,13.26,0,19.89,0,.86-.21,1.11-1.09,1.09-2.46-.06-4.93-.05-7.4,0-.67,0-.88-.14-.88-.85q0-20.21,0-40.43c0-.63.19-.8.8-.79,2.55,0,5.09.05,7.63,0,.81,0,1,.26.94,1C99.73,28,99.75,34.69,99.74,41.4Z"/><path class="cls-1" d="M45.92,49.4c0,.43-.07.94-.76,1s-1-.32-1.08-.85c-.21-1-.6-1.65-1.71-1.65a1.62,1.62,0,0,0-1.77,1.59c-.07.53-.27.9-.88.93s-.91-.35-1-.93c-.17-1-.64-1.63-1.75-1.59a1.57,1.57,0,0,0-1.68,1.54c-.07.56-.32,1-1,1s-.81-.36-.93-.89c-.19-.81-.48-1.56-1.52-1.61A1.56,1.56,0,0,0,30,49.24c-.12.56-.22,1.21-1,1.21s-.9-.6-1-1.19A1.53,1.53,0,0,0,26.38,48a1.5,1.5,0,0,0-1.72,1.21c0,.14-.12.27-.14.41-.13.65-.47,1-1.16.87s-.74-.74-.69-1.3a3.51,3.51,0,0,1,4.9-2.82,2.48,2.48,0,0,0,2.76,0,2.91,2.91,0,0,1,3.14.27,1.3,1.3,0,0,0,1.67,0,3.17,3.17,0,0,1,3.73,0,1.25,1.25,0,0,0,1.63,0A3.54,3.54,0,0,1,45.92,49.4Z"/><path class="cls-1" d="M25.42,42.22a3.47,3.47,0,0,1,5.24-2.9,1.55,1.55,0,0,0,1.94,0,3.08,3.08,0,0,1,3.61.12,1.17,1.17,0,0,0,1.56,0c2.34-1.58,4.95,0,5.49,2.45a1.09,1.09,0,0,1-.72,1.42c-.69.19-.94-.3-1.07-.92A1.83,1.83,0,0,0,39.7,40.7,1.67,1.67,0,0,0,38,42.31c-.09.49-.32,1-1,1s-.84-.54-.93-1.05a1.7,1.7,0,0,0-1.67-1.6,1.77,1.77,0,0,0-1.81,1.47c-.17.53-.22,1.16-.95,1.16s-.77-.63-1-1.15c-.3-.82-.74-1.57-1.78-1.49s-1.51.78-1.7,1.74c-.11.54-.37,1-1,.91S25.38,42.75,25.42,42.22Z"/><path class="cls-1" d="M32,31.89c1.48,1.15,3.33.23,5.21,0a3.22,3.22,0,0,1,3.34,2.75c.1.6.23,1.34-.62,1.55s-1.09-.36-1.21-1.06A1.73,1.73,0,0,0,37.4,33.7a1.68,1.68,0,0,0-1.7.55,1.82,1.82,0,0,0-.41,1c-.08.52-.24,1-.93,1s-.88-.36-1-1A1.74,1.74,0,0,0,32,33.68a1.77,1.77,0,0,0-1.67.65c-.31.32-.28.75-.42,1.12-.2.55-.51.93-1.13.78s-.8-.68-.71-1.29C28.31,33.05,29.68,31.88,32,31.89Z"/></svg>