<svg id="Capa_1" data-name="Capa 1" xmlns="http://www.w3.org/2000/svg" viewBox="0 0 222.43 110.54"><defs><style>.cls-1{fill:#e4383c;}.cls-2{fill:#e1393d;}.cls-3{fill:#f9f9f9;}</style></defs><title>carli1Mesa de trabajo 1</title><path class="cls-1" d="M143.1,67.58h-5.44c-.45,0-.83,0-.76-.62.38-4.1-2.41-6-5.9-7a15.87,15.87,0,0,0-11,.78,5.67,5.67,0,0,0-3.71,5.49,1.64,1.64,0,0,0,1.08,1.59,19.41,19.41,0,0,0,5.68,1.26c4.87.7,9.82.73,14.64,1.9,4.49,1.08,8.29,3.1,10.87,7.08,3.17,4.89,3.37,10.06,1.19,15.3-2.41,5.77-7.17,8.89-12.91,10.79a30.61,30.61,0,0,1-12.21,1.34c-5.48-.45-10.61-2-14.9-5.62a16.17,16.17,0,0,1-6.14-13c0-1.89,0-1.89,1.9-1.89H115c.68,0,.94.07.94.87a5.38,5.38,0,0,0,3.58,5.35,17.91,17.91,0,0,0,8.37,1.69c3.13-.2,6.29-.65,8.93-2.61a4.91,4.91,0,0,0,1.9-5.36c-.09-.42-.38-.56-.68-.72a17.45,17.45,0,0,0-6.87-1.79c-3.84-.43-7.69-.69-11.49-1.24a21.42,21.42,0,0,1-10.41-3.89,13.44,13.44,0,0,1-5.36-10.48,16.94,16.94,0,0,1,3.85-11.88A19.82,19.82,0,0,1,116.42,49a27.05,27.05,0,0,1,11-1.84c6,.28,11.62,1.85,16.21,5.92,4.13,3.68,5.82,8.44,5.68,13.92,0,.61-.37.55-.76.55H143.1Z"/><path class="cls-1" d="M43.46,67.58H38c-.39,0-.8.07-.74-.55.42-4.22-2.61-6.11-5.84-7.06a15.82,15.82,0,0,0-11.18.83,5.68,5.68,0,0,0-3.61,5.55,1.69,1.69,0,0,0,1.14,1.52,21.08,21.08,0,0,0,5.67,1.2c4.84.69,9.76.69,14.53,1.89a18.51,18.51,0,0,1,8.64,4.31c5.94,5.68,6,14.42,2.21,20.45-3,4.73-7.47,7.24-12.64,8.67a30.84,30.84,0,0,1-21-1.37c-5.8-2.52-9.71-6.75-11-13.1a22.79,22.79,0,0,1-.24-4.36c0-.48.18-.58.61-.58H15.62c.27,0,.58-.07.56.39-.2,4,2.34,5.67,5.67,6.62A18.41,18.41,0,0,0,36.52,90.7,5,5,0,0,0,39,85.15a1.27,1.27,0,0,0-.74-1,18.52,18.52,0,0,0-6.89-1.77c-3.78-.43-7.67-.69-11.48-1.23a21.46,21.46,0,0,1-10-3.62,13,13,0,0,1-5.49-9.06A16.76,16.76,0,0,1,9.87,53.1,23,23,0,0,1,21.1,47.78a28.25,28.25,0,0,1,15.61,1.1c6.08,2.21,10.6,6,12.37,12.62a22.55,22.55,0,0,1,.59,5.37c0,.62-.19.78-.77.77C47.11,67.56,45.28,67.58,43.46,67.58Z"/><path class="cls-1" d="M153,75.59v-27c0-.86.19-1.09,1.07-1.07,3.38.06,6.77,0,10.14,0,.89,0,1.17.16,1.16,1.12V72.31c0,1.25,0,1.22,1.24,1,4.57-1.11,9-2.64,13.64-3.61a44.39,44.39,0,0,1,7.06-1.14c.72,0,.6-.5.6-1V48.73c0-.87.14-1.17,1.11-1.15,3.48.08,7,0,10.45,0,.73,0,1,.18,1,1V102.8c0,.77-.16,1-1,1-3.48,0-7-.06-10.4,0-1,0-1.06-.28-1.06-1.11V81.83c0-.83-.14-1-1.05-.87-6,.89-11.64,3-17.5,4.34-1,.24-2,.41-3.05.6-.65.13-1,.36-.95,1.19.06,5.19,0,10.41,0,15.58,0,.89-.25,1.09-1.11,1.08-3.45,0-6.89,0-10.35,0-.74,0-.94-.21-.94-1Q153,89.18,153,75.59Z"/><path class="cls-1" d="M65.65,66.05c.08,4.42-.18,9.82.12,15.21a13.13,13.13,0,0,0,3,8.27A12,12,0,0,0,86,89.68a12.5,12.5,0,0,0,3-7.47c.39-3.93.14-7.87.16-11.8V48.75c0-.8.19-1,1-1,3.52.06,7,.05,10.57,0,.71,0,.94.17.94,1,0,10.66.25,21.34-.08,32-.36,11.58-7.11,21.22-18.69,24.24-7.23,1.9-13.9.19-19.79-4.33-6.71-5.15-9.67-12.21-9.77-20.47-.14-10.41,0-20.82-.06-31.28,0-.85.18-1.11,1.07-1.09,3.45.06,6.9,0,10.36,0,.72,0,.94.16.94.95C65.63,54.11,65.65,59.61,65.65,66.05Z"/><path class="cls-2" d="M5.49,24.78C5.25,15,13.69,6.47,23.77,6.54a18.34,18.34,0,1,1-.2,36.67C13.79,43.16,5.19,35,5.49,24.78Zm29.25,7.77a3.35,3.35,0,0,0-5.13-2.65,1.18,1.18,0,0,1-1.54,0,3,3,0,0,0-3.53,0,1.24,1.24,0,0,1-1.58,0,2.76,2.76,0,0,0-3-.26,2.34,2.34,0,0,1-2.61,0A3.33,3.33,0,0,0,13,31.35a3.5,3.5,0,0,0-.26,1c0,.53,0,1.1.66,1.23s.94-.21,1.09-.82c0-.14.11-.26.14-.39a1.41,1.41,0,0,1,1.62-1.11,1.46,1.46,0,0,1,1.46,1.24c.12.56.21,1.14.95,1.13s.86-.62.94-1.15a1.49,1.49,0,0,1,1.67-1.25l.16,0c.94,0,1.26.76,1.44,1.53.11.5.32.84.88.84s.86-.39.94-1a1.49,1.49,0,0,1,1.49-1.48h.12A1.55,1.55,0,0,1,28,32.67c.09.55.34.95.94.88s.77-.38.83-.88a1.54,1.54,0,0,1,1.56-1.51h.12c1.05,0,1.42.66,1.62,1.56.11.5.39.94,1,.8S34.73,33,34.74,32.55Zm-19.4-6.8c0,.51.07.95.69,1.06s.87-.35.95-.86c.18-.94.62-1.57,1.61-1.64s1.4.63,1.68,1.41c.19.49.25,1.08.95,1.08s.74-.59.9-1.09a1.66,1.66,0,0,1,1.71-1.39,1.6,1.6,0,0,1,1.58,1.51c.09.48.25,1,.88,1s.83-.52.95-.94a1.57,1.57,0,0,1,1.59-1.56h0a1.72,1.72,0,0,1,1.68,1.59c.12.58.36,1.05,1,.87a1,1,0,0,0,.7-1.28.19.19,0,0,0,0-.07A3.4,3.4,0,0,0,27,23.11a1.1,1.1,0,0,1-1.48,0A2.91,2.91,0,0,0,22.14,23a1.47,1.47,0,0,1-1.84,0,3.29,3.29,0,0,0-4.5,1.15A3.37,3.37,0,0,0,15.34,25.75ZM21.57,16c-2.19,0-3.48,1.1-3.78,2.84-.09.58,0,1.07.67,1.22s.88-.22,1.07-.74c.13-.35.1-.76.39-1.06a1.7,1.7,0,0,1,1.65-.57,1.66,1.66,0,0,1,1.33,1.54c.11.56.33.94,1,.94s.8-.46.88-.94a1.74,1.74,0,0,1,.39-.95,1.58,1.58,0,0,1,1.61-.52A1.64,1.64,0,0,1,28,19.13c.11.66.37,1.19,1.14,1s.68-.89.59-1.46a3,3,0,0,0-3.16-2.6C24.71,16.2,23,17,21.57,16Z"/><path class="cls-1" d="M124.78,24.6v19c0,.89-.15,1.2-1.12,1.16-2.26-.08-4.53-.07-6.8,0-.85,0-1.11-.2-1.1-1.08V6c0-.79.2-1,.95-1,2.44.06,4.88,0,7.32,0,.43,0,.75,0,.7.58-.46,5.17,2.2,8.82,5.94,11.84,3.38,2.72,6.87,5.3,10.32,7.94a1.2,1.2,0,0,0,.28.13c.25-.29.11-.62.11-1V5.94c0-.78.19-1,1-.94,2.34,0,4.67,0,7,0,.7,0,.95.13.95.89V44c0,.61-.12.85-.8.84h-7.32c-.46,0-.84,0-.79-.64.41-4.6-1.95-7.86-5.21-10.69C132.63,30.36,128.55,27.87,124.78,24.6Z"/><path class="cls-1" d="M153.42,24.86v-19c0-.79.18-1.07.94-1,3.15.46,6.33.1,9.46.22,7.24.27,12.54,3.65,16,10a20.49,20.49,0,0,1,2.46,11.53c-.68,9-6.27,16.27-15.53,17.81a59.46,59.46,0,0,1-8.44.34h-3.87c-.8,0-1-.17-1-1C153.44,37.49,153.42,31.22,153.42,24.86Zm8.87,0v9.51c0,.32-.25.85.41.86,3.09,0,6-.56,8.13-3a10.49,10.49,0,0,0,2.48-8.4c-.57-5.93-4.29-9.36-10.14-9.33-.75,0-.94.24-.94.95.09,3.16.07,6.31.06,9.43Z"/><path class="cls-1" d="M98,19.87a26.56,26.56,0,0,1,6.82-2,34.48,34.48,0,0,1,5.18-.32c.48,0,.58.23.58.65v8.26c0,.6-.28.67-.77.66-1,0-2,0-3,.06-3.06.16-5.67,1.76-8.42,2.84-.42.16-.37.44-.37.74v3.65c0,.79.18,1,1,1h13.49c.87,0,1.21.12,1.18,1.11-.09,2.54,0,5.09,0,7.63,0,.63-.16.83-.82.83H89.91c-.71,0-.87-.21-.87-.89V5.94c0-.73.25-.85.94-.85h22.18c.68,0,.78.22.77.82v7.85c0,.68-.18.87-.86.86H99.62c-1.56,0-1.56,0-1.56,1.62Z"/><path class="cls-1" d="M210,44.83h-4a.83.83,0,0,1-1-.69c-.72-2.16-1.51-4.3-2.21-6.47A.79.79,0,0,0,202,37h-.06a30.88,30.88,0,0,1-9.19-.73c-.95-.2-1.33.13-1.6,1-.73,2.3-1.55,4.58-2.29,6.88a.84.84,0,0,1-1,.69H180c-.61,0-.86,0-.59-.79C183,33.67,186.5,23.31,190.06,13c.83-2.41,1.69-4.81,2.49-7.24a.84.84,0,0,1,.94-.71h7.11a.76.76,0,0,1,.88.63h0q5.61,16.55,11.28,33.11c.61,1.8,1.22,3.6,1.89,5.39.21.56.12.73-.49.72C212.75,44.8,211.38,44.83,210,44.83ZM199.38,27.44c-.79-2.3-1.55-4.57-2.4-7-.76,2.18-1.42,4.09-2.1,6-.13.38-.27.75.37.78A23.82,23.82,0,0,0,199.38,27.44Z"/><path class="cls-1" d="M203.22,75.59v-27c0-.88.23-1.08,1.09-1.06,3.44.06,6.89,0,10.35,0,.68,0,.88.17.88.86v54.39c0,.76-.24.95-.95.95H204.13c-.75,0-.9-.21-.9-.95Q203.22,89.19,203.22,75.59Z"/><path class="cls-1" d="M53.64,29.67v-14c0-.87-.12-1.19-1.1-1.17-2.84.08-5.68,0-8.52,0-.69,0-1-.09-1-.88.06-2.61,0-5.22,0-7.83,0-.63.15-.81.8-.81H72.25c.74,0,.84.26.83.9v7.63c0,.76-.15,1-.94,1-2.84,0-5.68,0-8.57,0-.88,0-1.1.22-1.09,1.09V43.68c0,.85-.19,1.14-1.08,1.11-2.3-.07-4.61-.06-6.91,0-.73,0-.94-.2-.94-.95C53.65,39.15,53.64,34.41,53.64,29.67Z"/><path class="cls-1" d="M85.66,25V43.8c0,.81-.2,1.05-1,1-2.33-.06-4.67,0-7,0-.64,0-.84-.14-.84-.81V5.77c0-.59.18-.75.76-.75,2.41,0,4.82.05,7.22,0,.76,0,.94.25.89,1C85.65,12.3,85.67,18.63,85.66,25Z"/><path class="cls-3" d="M34.74,32.55c0,.4-.07.89-.72.94a.85.85,0,0,1-1-.8c-.2-.95-.57-1.56-1.62-1.56a1.53,1.53,0,0,0-1.67,1.38v.12c-.07.5-.26.85-.84.88s-.86-.33-.94-.88c-.16-.94-.61-1.54-1.66-1.5a1.47,1.47,0,0,0-1.58,1.38.17.17,0,0,0,0,.07c-.06.53-.3,1-.94,1s-.77-.34-.88-.84c-.18-.77-.46-1.48-1.44-1.52a1.46,1.46,0,0,0-1.73,1.16.15.15,0,0,0,0,.07c-.12.53-.21,1.14-.95,1.14s-.85-.57-.94-1.13a1.46,1.46,0,0,0-1.54-1.19,1.42,1.42,0,0,0-1.62,1.15c0,.13-.12.25-.14.38-.12.62-.44,1-1.09.83s-.7-.7-.66-1.23a3.32,3.32,0,0,1,3.67-2.93,3.57,3.57,0,0,1,1,.26,2.34,2.34,0,0,0,2.61,0,2.76,2.76,0,0,1,3,.26,1.24,1.24,0,0,0,1.58,0,3,3,0,0,1,3.53,0,1.18,1.18,0,0,0,1.54,0,3.35,3.35,0,0,1,5.13,2.61Z"/><path class="cls-3" d="M15.34,25.75a3.29,3.29,0,0,1,3.37-3.2A3.19,3.19,0,0,1,20.3,23a1.47,1.47,0,0,0,1.84,0,2.91,2.91,0,0,1,3.41.11,1.1,1.1,0,0,0,1.48,0c2.21-1.49,4.68,0,5.19,2.32a1,1,0,0,1-.61,1.32l-.07,0c-.65.17-.89-.29-1-.88a1.72,1.72,0,0,0-1.68-1.59,1.57,1.57,0,0,0-1.6,1.52c-.09.46-.31.95-.95.95s-.79-.52-.88-1a1.6,1.6,0,0,0-1.58-1.51,1.67,1.67,0,0,0-1.71,1.39c-.16.5-.21,1.1-.9,1.1s-.73-.6-.95-1.09c-.28-.78-.7-1.49-1.68-1.41S17.17,25,17,25.91c-.1.52-.35.95-.95.87S15.31,26.26,15.34,25.75Z"/><path class="cls-3" d="M21.57,16c1.4,1.09,3.15.22,4.93,0a3.06,3.06,0,0,1,3.16,2.6c.09.57.22,1.27-.59,1.47s-1-.34-1.14-1a1.66,1.66,0,0,0-1.25-1.36,1.61,1.61,0,0,0-1.61.52,1.74,1.74,0,0,0-.39.95c-.07.49-.22.95-.88.95s-.83-.34-.94-.95a1.66,1.66,0,0,0-1.29-1.49,1.69,1.69,0,0,0-1.58.62c-.29.3-.27.71-.4,1.06-.19.52-.48.88-1.07.74a1,1,0,0,1-.67-1.22C18.08,17.08,19.37,16,21.57,16Z"/></svg>